<svg width="4769" height="1440" viewBox="0 0 4769 1440" fill="none" xmlns="http://www.w3.org/2000/svg">
<path d="M1520 1019H1419V489H1513V577C1549 516 1606 479 1679 479C1757 479 1816 519.001 1840 589C1877 521 1938 479 2019 479C2128 479 2198 550 2198 676V1019H2097V708C2097 620 2058 568 1984 568C1915 568 1859 626 1859 715V1019H1758V708C1758 620 1719 568 1645 568C1575 568 1520 626 1520 715V1019ZM2551.06 1029C2398.06 1029 2295.06 918 2295.06 751C2295.06 594 2402.06 479 2548.06 479C2706.06 479 2811.06 607 2793.06 779H2398.06C2406.06 887.001 2460.06 950 2549.06 950C2624.06 950 2676.06 909 2693.06 840H2793.06C2767.06 958 2676.06 1029 2551.06 1029ZM2546.06 555C2465.06 555 2410.06 613 2399.06 712H2686.06C2681.06 614 2628.06 555 2546.06 555ZM3001.45 748V1019H2900.45V489H2994.45V601C3031.45 528 3111.45 482 3198.45 482V587C3084.45 581 3001.45 631 3001.45 748ZM3485.42 1030C3340.42 1030 3238.42 916 3238.42 754C3238.42 594 3342.42 479 3485.42 479C3616.42 479 3711.42 566 3730.42 704H3624.42C3613.42 619 3560.42 568 3486.42 568C3399.42 568 3342.42 642 3342.42 754C3342.42 867 3399.42 940 3486.42 940C3561.42 940 3613.42 890 3625.42 804H3730.42C3712.42 944 3618.42 1030 3485.42 1030ZM3934.09 1019H3832.09V301H3934.09V1019ZM4292.27 1029C4139.27 1029 4036.27 918 4036.27 751C4036.27 594 4143.27 479 4289.27 479C4447.27 479 4552.27 607 4534.27 779H4139.27C4147.27 887.001 4201.27 950 4290.27 950C4365.27 950 4417.27 909 4434.27 840H4534.27C4508.27 958 4417.27 1029 4292.27 1029ZM4287.27 555C4206.27 555 4151.27 613 4140.27 712H4427.27C4422.27 614 4369.27 555 4287.27 555Z" fill="black"/>
<path d="M578.246 8.98678C578.274 6.59354 579.246 4.30802 580.952 2.62567C582.657 0.943325 584.957 -0.000165617 587.355 2.18075e-08H630.219C632.616 -0.000165617 634.917 0.943325 636.622 2.62567C638.327 4.30802 639.3 6.59354 639.328 8.98678V50.9251C639.328 53.3369 638.368 55.65 636.66 57.3554C634.952 59.0608 632.635 60.019 630.219 60.019H587.355C584.939 60.019 582.622 59.0608 580.914 57.3554C579.206 55.65 578.246 53.3369 578.246 50.9251V8.98678Z" fill="black"/>
<path d="M785.152 119.924C782.754 119.924 780.454 120.867 778.748 122.55C777.043 124.232 776.071 126.517 776.043 128.911V170.956C776.071 173.349 777.043 175.635 778.748 177.317C780.454 179 782.754 179.943 785.152 179.943H828.016C830.413 179.943 832.714 179 834.419 177.317C836.124 175.635 837.097 173.349 837.125 170.956V128.911C837.097 126.517 836.124 124.232 834.419 122.55C832.714 120.867 830.413 119.924 828.016 119.924H785.152Z" fill="black"/>
<path d="M973.863 248.849C973.877 247.655 974.127 246.475 974.597 245.377C975.068 244.279 975.751 243.284 976.607 242.45C977.463 241.615 978.475 240.957 979.585 240.513C980.696 240.069 981.883 239.848 983.079 239.862H1025.94C1028.34 239.862 1030.64 240.805 1032.35 242.488C1034.05 244.17 1035.02 246.456 1035.05 248.849V290.894C1035.02 293.288 1034.05 295.573 1032.35 297.256C1030.64 298.938 1028.34 299.881 1025.94 299.881H983.079C981.883 299.895 980.696 299.674 979.585 299.23C978.475 298.786 977.463 298.128 976.607 297.293C975.751 296.459 975.068 295.464 974.597 294.366C974.127 293.268 973.877 292.089 973.863 290.894V248.849Z" fill="black"/>
<path d="M0 368.767C0.0282037 366.373 1.0003 364.088 2.70546 362.405C4.41062 360.723 6.71136 359.78 9.10868 359.78H51.973C53.1692 359.766 54.3565 359.987 55.467 360.431C56.5775 360.875 57.5896 361.533 58.4454 362.367C59.3012 363.202 59.9839 364.197 60.4547 365.295C60.9254 366.393 61.1749 367.572 61.1888 368.767V410.812C61.1749 412.006 60.9254 413.186 60.4547 414.284C59.9839 415.382 59.3012 416.377 58.4454 417.211C57.5896 418.046 56.5775 418.704 55.467 419.148C54.3565 419.592 53.1692 419.813 51.973 419.799H9.10868C6.71136 419.799 4.41062 418.856 2.70546 417.173C1.0003 415.491 0.0282037 413.205 0 410.812V368.767Z" fill="black"/>
<path d="M2.26037e-08 608.765C-8.43885e-05 607.575 0.23625 606.398 0.695304 605.301C1.15436 604.203 1.82701 603.208 2.67426 602.372C3.52151 601.536 4.52652 600.876 5.63103 600.431C6.73554 599.986 7.91759 599.764 9.10868 599.778H51.973C53.173 599.749 54.3666 599.961 55.4836 600.4C56.6006 600.838 57.6184 601.496 58.4771 602.333C59.3358 603.17 60.018 604.171 60.4837 605.275C60.9495 606.38 61.1892 607.566 61.1888 608.765V650.703C61.1892 651.902 60.9495 653.088 60.4837 654.193C60.018 655.297 59.3358 656.297 58.4771 657.135C57.6184 657.972 56.6006 658.63 55.4836 659.068C54.3666 659.507 53.173 659.719 51.973 659.69H9.10868C7.91759 659.704 6.73554 659.482 5.63103 659.037C4.52652 658.592 3.52151 657.932 2.67426 657.096C1.82701 656.26 1.15436 655.265 0.695304 654.167C0.23625 653.07 -8.43885e-05 651.893 2.26037e-08 650.703V608.765Z" fill="black"/>
<path d="M9.10868 839.626C6.71136 839.625 4.41062 840.569 2.70546 842.251C1.0003 843.934 0.0282038 846.22 2.26037e-08 848.613V890.551C-8.43885e-05 891.74 0.23625 892.918 0.695304 894.015C1.15436 895.113 1.82701 896.108 2.67426 896.944C3.52151 897.78 4.52652 898.44 5.63103 898.885C6.73554 899.33 7.91759 899.552 9.10868 899.538H51.973C53.173 899.566 54.3666 899.355 55.4836 898.916C56.6006 898.477 57.6184 897.82 58.4771 896.983C59.3358 896.145 60.018 895.145 60.4837 894.04C60.9495 892.936 61.1892 891.749 61.1888 890.551V848.613C61.1749 847.419 60.9254 846.238 60.4547 845.14C59.9839 844.042 59.3012 843.048 58.4454 842.213C57.5896 841.379 56.5775 840.721 55.467 840.277C54.3565 839.833 53.1692 839.612 51.973 839.626H9.10868Z" fill="black"/>
<path d="M0 1088.47C0.0282037 1086.07 1.0003 1083.79 2.70546 1082.11C4.41062 1080.42 6.71136 1079.48 9.10868 1079.48H51.973C53.1692 1079.47 54.3565 1079.69 55.467 1080.13C56.5775 1080.58 57.5896 1081.23 58.4454 1082.07C59.3012 1082.9 59.9839 1083.9 60.4547 1085C60.9254 1086.09 61.1749 1087.27 61.1888 1088.47V1130.51C61.1749 1131.71 60.9254 1132.89 60.4547 1133.99C59.9839 1135.08 59.3012 1136.08 58.4454 1136.91C57.5896 1137.75 56.5775 1138.41 55.467 1138.85C54.3565 1139.29 53.1692 1139.51 51.973 1139.5H9.10868C6.71136 1139.5 4.41062 1138.56 2.70546 1136.87C1.0003 1135.19 0.0282037 1132.91 0 1130.51V1088.47Z" fill="black"/>
<path d="M1165.66 359.779C1163.25 359.779 1160.94 360.718 1159.22 362.398C1157.5 364.077 1156.5 366.363 1156.45 368.766V410.811C1156.5 413.214 1157.5 415.5 1159.22 417.179C1160.94 418.859 1163.25 419.799 1165.66 419.798H1208.53C1210.92 419.798 1213.22 418.855 1214.93 417.173C1216.63 415.49 1217.61 413.205 1217.63 410.811V368.766C1217.61 366.373 1216.63 364.087 1214.93 362.405C1213.22 360.722 1210.92 359.779 1208.53 359.779H1165.66Z" fill="black"/>
<path d="M1156.45 608.763C1156.46 607.569 1156.71 606.389 1157.18 605.291C1157.65 604.193 1158.33 603.198 1159.19 602.364C1160.04 601.529 1161.06 600.871 1162.17 600.427C1163.28 599.983 1164.46 599.762 1165.66 599.776H1208.53C1209.72 599.762 1210.9 599.984 1212 600.429C1213.11 600.874 1214.11 601.534 1214.96 602.37C1215.81 603.206 1216.48 604.201 1216.94 605.299C1217.4 606.396 1217.63 607.574 1217.63 608.763V650.701C1217.63 651.891 1217.4 653.068 1216.94 654.165C1216.48 655.263 1215.81 656.258 1214.96 657.094C1214.11 657.93 1213.11 658.59 1212 659.035C1210.9 659.48 1209.72 659.702 1208.53 659.688H1165.66C1164.46 659.702 1163.28 659.481 1162.17 659.037C1161.06 658.593 1160.04 657.935 1159.19 657.1C1158.33 656.266 1157.65 655.271 1157.18 654.173C1156.71 653.075 1156.46 651.896 1156.45 650.701V608.763Z" fill="black"/>
<path d="M1165.66 839.625C1163.25 839.624 1160.94 840.564 1159.22 842.244C1157.5 843.923 1156.5 846.209 1156.45 848.612V890.55C1156.46 891.745 1156.71 892.924 1157.18 894.022C1157.65 895.12 1158.33 896.115 1159.19 896.95C1160.04 897.784 1161.06 898.442 1162.17 898.886C1163.28 899.33 1164.46 899.551 1165.66 899.537H1208.53C1209.72 899.551 1210.9 899.329 1212 898.884C1213.11 898.439 1214.11 897.779 1214.96 896.943C1215.81 896.107 1216.48 895.112 1216.94 894.015C1217.4 892.917 1217.63 891.74 1217.63 890.55V848.612C1217.61 846.219 1216.63 843.933 1214.93 842.251C1213.22 840.568 1210.92 839.625 1208.53 839.625H1165.66Z" fill="black"/>
<path d="M1156.45 1088.47C1156.5 1086.06 1157.5 1083.78 1159.22 1082.1C1160.94 1080.42 1163.25 1079.48 1165.66 1079.48H1208.53C1210.92 1079.48 1213.22 1080.42 1214.93 1082.11C1216.63 1083.79 1217.61 1086.07 1217.63 1088.47V1130.51C1217.61 1132.91 1216.63 1135.19 1214.93 1136.87C1213.22 1138.56 1210.92 1139.5 1208.53 1139.5H1165.66C1163.25 1139.5 1160.94 1138.56 1159.22 1136.88C1157.5 1135.2 1156.5 1132.92 1156.45 1130.51V1088.47Z" fill="black"/>
<path d="M161.27 1139.51C160.05 1139.52 158.846 1139.78 157.73 1140.27C156.614 1140.76 155.61 1141.47 154.778 1142.36C153.946 1143.26 153.304 1144.31 152.891 1145.45C152.478 1146.6 152.303 1147.81 152.375 1149.03V1190.97C152.375 1192.16 152.612 1193.33 153.071 1194.43C153.53 1195.53 154.202 1196.53 155.05 1197.36C155.897 1198.2 156.902 1198.86 158.006 1199.3C159.111 1199.75 160.293 1199.97 161.484 1199.96H204.348C205.539 1199.97 206.722 1199.75 207.826 1199.3C208.931 1198.86 209.936 1198.2 210.783 1197.36C211.63 1196.53 212.303 1195.53 212.762 1194.43C213.221 1193.33 213.457 1192.16 213.457 1190.97V1149.03C213.457 1147.84 213.221 1146.66 212.762 1145.57C212.303 1144.47 211.63 1143.47 210.783 1142.64C209.936 1141.8 208.931 1141.14 207.826 1140.7C206.722 1140.25 205.539 1140.03 204.348 1140.04L161.27 1139.51Z" fill="black"/>
<path d="M346.869 1268.43C346.925 1266.02 347.92 1263.74 349.643 1262.06C351.365 1260.38 353.677 1259.44 356.085 1259.44H398.949C401.357 1259.44 403.669 1260.38 405.391 1262.06C407.113 1263.74 408.109 1266.02 408.165 1268.43V1310.36C408.151 1311.56 407.901 1312.74 407.431 1313.84C406.96 1314.93 406.277 1315.93 405.421 1316.76C404.566 1317.6 403.554 1318.26 402.443 1318.7C401.333 1319.14 400.145 1319.36 398.949 1319.35H355.978C354.781 1319.36 353.594 1319.14 352.484 1318.7C351.373 1318.26 350.361 1317.6 349.505 1316.76C348.649 1315.93 347.967 1314.93 347.496 1313.84C347.025 1312.74 346.776 1311.56 346.762 1310.36L346.869 1268.43Z" fill="black"/>
<path d="M587.355 1379.36C584.957 1379.36 582.657 1380.3 580.952 1381.98C579.246 1383.67 578.274 1385.95 578.246 1388.34V1430.39C578.274 1432.78 579.246 1435.07 580.952 1436.75C582.657 1438.43 584.957 1439.38 587.355 1439.38H630.219C632.616 1439.38 634.917 1438.43 636.622 1436.75C638.327 1435.07 639.3 1432.78 639.328 1430.39V1388.34C639.3 1385.95 638.327 1383.67 636.622 1381.98C634.917 1380.3 632.616 1379.36 630.219 1379.36H587.355Z" fill="black"/>
<path d="M760.863 1298.81C760.891 1296.42 761.864 1294.13 763.569 1292.45C765.274 1290.77 767.575 1289.82 769.972 1289.82H812.836C815.234 1289.82 817.534 1290.77 819.24 1292.45C820.945 1294.13 821.917 1296.42 821.945 1298.81V1340.86C821.917 1343.25 820.945 1345.53 819.24 1347.22C817.534 1348.9 815.234 1349.84 812.836 1349.84H769.972C767.575 1349.84 765.274 1348.9 763.569 1347.22C761.864 1345.53 760.891 1343.25 760.863 1340.86V1298.81Z" fill="black"/>
<path d="M952.542 1169.48C950.145 1169.48 947.844 1170.42 946.139 1172.1C944.434 1173.79 943.462 1176.07 943.434 1178.46V1220.4C943.434 1222.81 944.393 1225.13 946.101 1226.83C947.81 1228.54 950.126 1229.5 952.542 1229.5H995.407C997.822 1229.5 1000.14 1228.54 1001.85 1226.83C1003.56 1225.13 1004.52 1222.81 1004.52 1220.4V1178.46C1004.49 1176.07 1003.51 1173.79 1001.81 1172.1C1000.1 1170.42 997.804 1169.48 995.407 1169.48H952.542Z" fill="black"/>
<path d="M359.089 119.924C356.692 119.924 354.391 120.867 352.686 122.55C350.981 124.232 350.009 126.517 349.98 128.911V170.956C350.009 173.349 350.981 175.635 352.686 177.317C354.391 179 356.692 179.943 359.089 179.943H401.954C404.351 179.943 406.652 179 408.357 177.317C410.062 175.635 411.034 173.349 411.062 170.956V128.911C411.034 126.517 410.062 124.232 408.357 122.55C406.652 120.867 404.351 119.924 401.954 119.924H359.089Z" fill="black"/>
<path d="M152.359 248.848C152.388 246.455 153.36 244.169 155.065 242.487C156.77 240.805 159.071 239.861 161.468 239.861H204.332C206.73 239.861 209.03 240.805 210.736 242.487C212.441 244.169 213.413 246.455 213.441 248.848V290.894C213.413 293.287 212.441 295.573 210.736 297.255C209.03 298.937 206.73 299.881 204.332 299.881H161.468C159.071 299.881 156.77 298.937 155.065 297.255C153.36 295.573 152.388 293.287 152.359 290.894V248.848Z" fill="black"/>
<path d="M587.355 239.656C584.957 239.656 582.657 240.6 580.952 242.282C579.246 243.964 578.274 246.25 578.246 248.643V290.688C578.274 293.082 579.246 295.368 580.952 297.05C582.657 298.732 584.957 299.675 587.355 299.675H630.219C632.616 299.675 634.917 298.732 636.622 297.05C638.327 295.368 639.3 293.082 639.328 290.688V248.643C639.3 246.25 638.327 243.964 636.622 242.282C634.917 240.6 632.616 239.656 630.219 239.656H587.355Z" fill="black"/>
<path d="M578.246 938.604C578.246 937.414 578.482 936.237 578.941 935.14C579.4 934.042 580.073 933.047 580.92 932.211C581.768 931.375 582.773 930.715 583.877 930.27C584.982 929.825 586.164 929.603 587.355 929.617H630.219C631.41 929.603 632.592 929.825 633.697 930.27C634.801 930.715 635.806 931.375 636.654 932.211C637.501 933.047 638.173 934.042 638.632 935.14C639.091 936.237 639.328 937.414 639.328 938.604V980.542C639.328 981.731 639.091 982.909 638.632 984.006C638.173 985.104 637.501 986.099 636.654 986.935C635.806 987.771 634.801 988.431 633.697 988.876C632.592 989.321 631.41 989.543 630.219 989.529H587.355C586.164 989.543 584.982 989.321 583.877 988.876C582.773 988.431 581.768 987.771 580.92 986.935C580.073 986.099 579.4 985.104 578.941 984.006C578.482 982.909 578.246 981.731 578.246 980.542V938.604Z" fill="black"/>
<path d="M587.355 1139.51C586.164 1139.49 584.982 1139.72 583.877 1140.16C582.773 1140.61 581.768 1141.27 580.92 1142.1C580.073 1142.94 579.4 1143.93 578.941 1145.03C578.482 1146.13 578.246 1147.31 578.246 1148.5V1190.43C578.246 1191.62 578.482 1192.8 578.941 1193.9C579.4 1195 580.073 1195.99 580.92 1196.83C581.768 1197.66 582.773 1198.32 583.877 1198.77C584.982 1199.21 586.164 1199.43 587.355 1199.42H630.219C631.41 1199.43 632.592 1199.21 633.697 1198.77C634.801 1198.32 635.806 1197.66 636.654 1196.83C637.501 1195.99 638.173 1195 638.632 1193.9C639.091 1192.8 639.328 1191.62 639.328 1190.43V1149.03C639.328 1147.84 639.091 1146.66 638.632 1145.57C638.173 1144.47 637.501 1143.47 636.654 1142.64C635.806 1141.8 634.801 1141.14 633.697 1140.7C632.592 1140.25 631.41 1140.03 630.219 1140.04L587.355 1139.51Z" fill="black"/>
<path fill-rule="evenodd" clip-rule="evenodd" d="M386.506 449.783H359.073C355.883 449.826 352.717 449.239 349.755 448.056C346.794 446.873 344.096 445.118 341.815 442.891C339.535 440.664 337.718 438.01 336.468 435.08C335.219 432.15 334.561 429.003 334.533 425.818V353.817C334.589 347.423 337.181 341.311 341.74 336.82C346.298 332.329 352.454 329.823 358.858 329.852H431.942C438.347 329.823 444.502 332.329 449.061 336.82C453.62 341.311 456.211 347.423 456.268 353.817V381.312L559.571 453.635C563.455 451.196 567.948 449.898 572.537 449.89H645.299C650.471 449.859 655.512 451.512 659.659 454.597L760.926 361.306V353.924C760.982 347.53 763.574 341.418 768.133 336.927C772.691 332.436 778.847 329.93 785.251 329.959H858.335C864.74 329.93 870.895 332.436 875.454 336.927C880.013 341.418 882.604 347.53 882.661 353.924V425.925C882.604 432.319 880.013 438.431 875.454 442.922C870.895 447.413 864.74 449.919 858.335 449.89H836.903V539.865H858.335C864.74 539.837 870.895 542.342 875.454 546.834C880.013 551.325 882.604 557.436 882.661 563.83V566.077L943.528 522.106V473.855C943.585 467.461 946.176 461.35 950.735 456.858C955.294 452.367 961.449 449.862 967.853 449.89H1040.94C1047.34 449.862 1053.5 452.367 1058.06 456.858C1062.61 461.35 1065.21 467.461 1065.26 473.855V545.856C1065.25 549.027 1064.61 552.163 1063.38 555.085C1062.14 558.007 1060.35 560.658 1058.09 562.885C1055.83 565.112 1053.15 566.871 1050.21 568.061C1047.26 569.251 1044.11 569.849 1040.94 569.821H1019.5V659.796H1040.94C1047.34 659.768 1053.5 662.274 1058.06 666.765C1062.61 671.256 1065.21 677.368 1065.26 683.762V755.763C1065.25 758.933 1064.61 762.069 1063.38 764.992C1062.14 767.914 1060.35 770.564 1058.09 772.791C1055.83 775.018 1053.15 776.777 1050.21 777.968C1047.26 779.158 1044.11 779.756 1040.94 779.728H1019.5V869.703H1040.94C1047.34 869.675 1053.5 872.18 1058.06 876.671C1062.61 881.163 1065.21 887.274 1065.26 893.668V965.669C1065.25 968.84 1064.61 971.976 1063.38 974.898C1062.14 977.82 1060.35 980.471 1058.09 982.698C1055.83 984.924 1053.15 986.684 1050.21 987.874C1047.26 989.064 1044.11 989.663 1040.94 989.634H967.746C961.342 989.663 955.186 987.157 950.627 982.666C946.069 978.175 943.477 972.063 943.421 965.669V893.668C943.477 887.274 946.069 881.163 950.627 876.671C955.186 872.18 961.342 869.675 967.746 869.703H995.179V779.728H967.746C961.342 779.757 955.186 777.251 950.627 772.76C946.069 768.268 943.477 762.157 943.421 755.763V683.654C943.477 677.26 946.069 671.149 950.627 666.658C955.186 662.166 961.342 659.661 967.746 659.69H995.179V569.714H967.746C962.306 569.733 957.017 567.93 952.724 564.594C948.431 561.258 945.382 556.582 944.064 551.313L882.553 595.712V635.511C882.497 641.905 879.905 648.016 875.347 652.507C870.788 656.999 864.633 659.504 858.228 659.476H836.796V749.451H858.228C864.633 749.422 870.788 751.928 875.347 756.419C879.905 760.91 882.497 767.022 882.553 773.416V845.417C882.497 851.811 879.905 857.923 875.347 862.414C870.788 866.905 864.633 869.41 858.228 869.382H836.796V959.357H858.228C864.633 959.329 870.788 961.834 875.347 966.326C879.905 970.817 882.497 976.928 882.553 983.322V1055.32C882.497 1061.72 879.905 1067.83 875.347 1072.32C870.788 1076.81 864.633 1079.32 858.228 1079.29H785.144C778.74 1079.32 772.584 1076.81 768.025 1072.32C763.467 1067.83 760.875 1061.72 760.819 1055.32V983.322C760.875 976.928 763.467 970.817 768.025 966.326C772.584 961.834 778.74 959.329 785.144 959.357H812.577V869.382H785.144C778.74 869.41 772.584 866.905 768.025 862.414C763.467 857.923 760.875 851.811 760.819 845.417V773.416C760.875 767.022 763.467 760.91 768.025 756.419C772.584 751.928 778.74 749.422 785.144 749.451H812.577V659.476H794.038L669.518 749.451V755.442C669.518 761.855 666.966 768.005 662.424 772.539C657.882 777.074 651.722 779.621 645.299 779.621H572.108C565.704 779.649 559.549 777.144 554.99 772.652C550.431 768.161 547.84 762.05 547.783 755.656V735.757L439.979 658.406C437.461 659.264 434.817 659.698 432.156 659.69H410.724V749.665H432.156C438.561 749.636 444.716 752.142 449.275 756.633C453.834 761.124 456.425 767.236 456.482 773.63V845.631C456.425 852.025 453.834 858.136 449.275 862.628C444.716 867.119 438.561 869.625 432.156 869.596H410.724V959.571H432.156C438.561 959.543 444.716 962.048 449.275 966.539C453.834 971.031 456.425 977.142 456.482 983.536V1055.54C456.425 1061.93 453.834 1068.04 449.275 1072.53C444.716 1077.03 438.561 1079.53 432.156 1079.5H359.073C355.883 1079.54 352.717 1078.96 349.755 1077.78C346.794 1076.59 344.096 1074.84 341.815 1072.61C339.535 1070.38 337.718 1067.73 336.468 1064.8C335.219 1061.87 334.561 1058.72 334.533 1055.54V983.536C334.589 977.142 337.181 971.031 341.74 966.539C346.298 962.048 352.454 959.543 358.858 959.571H386.292V869.596H359.073C355.883 869.639 352.717 869.051 349.755 867.869C346.794 866.686 344.096 864.931 341.815 862.704C339.535 860.477 337.718 857.823 336.468 854.893C335.219 851.963 334.561 848.816 334.533 845.631V773.63C334.589 767.236 337.181 761.124 341.74 756.633C346.298 752.142 352.454 749.636 358.858 749.665H386.292V659.69H359.073C355.865 659.732 352.681 659.138 349.706 657.942C346.73 656.746 344.023 654.972 341.739 652.722C339.456 650.473 337.644 647.793 336.407 644.838C335.169 641.884 334.533 638.713 334.533 635.511V583.088L273.88 539.223V545.536C273.823 551.93 271.232 558.041 266.673 562.532C262.114 567.024 255.959 569.529 249.554 569.5H228.122V659.476H249.554C255.959 659.447 262.114 661.953 266.673 666.444C271.232 670.935 273.823 677.047 273.88 683.441V755.442C273.823 761.836 271.232 767.947 266.673 772.439C262.114 776.93 255.959 779.436 249.554 779.407H228.122V869.382H249.554C255.959 869.353 262.114 871.859 266.673 876.35C271.232 880.842 273.823 886.953 273.88 893.347V965.348C273.823 971.742 271.232 977.854 266.673 982.345C262.114 986.836 255.959 989.342 249.554 989.313H176.471C170.131 989.314 164.047 986.822 159.534 982.377C155.021 977.932 152.444 971.891 152.359 965.563V893.561C152.416 887.167 155.007 881.055 159.566 876.564C164.125 872.073 170.28 869.568 176.685 869.596H204.118V779.621H176.471C170.094 779.621 163.978 777.1 159.459 772.608C154.94 768.117 152.388 762.022 152.359 755.656V683.654C152.416 677.26 155.007 671.149 159.566 666.658C164.125 662.166 170.28 659.661 176.685 659.69H204.118V569.714H176.471C170.094 569.715 163.978 567.193 159.459 562.702C154.94 558.21 152.388 552.115 152.359 545.749V473.748C152.416 467.354 155.007 461.243 159.566 456.751C164.125 452.26 170.28 449.755 176.685 449.783H249.769C256.173 449.755 262.329 452.26 266.887 456.751C271.446 461.243 274.037 467.354 274.094 473.748V509.802L336.783 554.737C338.628 550.297 341.752 546.503 345.758 543.837C349.764 541.171 354.472 539.751 359.287 539.758H386.72L386.506 449.783ZM456.482 410.84L547.783 475.032V545.749C547.84 552.143 550.431 558.255 554.99 562.746C559.549 567.237 565.704 569.743 572.108 569.714H645.299C651.704 569.743 657.859 567.237 662.418 562.746C666.977 558.255 669.568 552.143 669.625 545.749V478.135L760.926 394.043V426.139C760.982 432.533 763.574 438.645 768.133 443.136C772.691 447.627 778.847 450.133 785.251 450.104H812.685V540.079H785.144C778.74 540.051 772.584 542.556 768.025 547.048C763.467 551.539 760.875 557.65 760.819 564.044V635.511C760.833 640.785 762.605 645.903 765.855 650.061L669.41 719.709V683.654C669.354 677.297 666.792 671.218 662.28 666.733C657.767 662.248 651.667 659.718 645.299 659.69H572.108C565.704 659.661 559.549 662.166 554.99 666.658C550.431 671.149 547.84 677.26 547.783 683.654V706.014L456.053 640.325C456.163 638.794 456.163 637.256 456.053 635.725V563.723C455.997 557.329 453.405 551.218 448.846 546.727C444.288 542.235 438.132 539.73 431.728 539.758H410.296V449.783H431.728C438.132 449.812 444.288 447.306 448.846 442.815C453.405 438.324 455.997 432.212 456.053 425.818L456.482 410.84Z" fill="black"/>
</svg>
